<?xml version="1.0" encoding="UTF-8" standalone="no" ?>
<!DOCTYPE svg PUBLIC "-//W3C//DTD SVG 1.1//EN" "http://www.w3.org/Graphics/SVG/1.1/DTD/svg11.dtd">
<svg xmlns="http://www.w3.org/2000/svg" xmlns:xlink="http://www.w3.org/1999/xlink" version="1.1" width="400" height="400" viewBox="0 0 400 400" xml:space="preserve">
<desc>Created with Fabric.js 3.6.2</desc>
<defs>
</defs>
<g transform="matrix(5.19 0 0 5.19 200 200)" id="Layer_1"  >
<path style="stroke: none; stroke-width: 1; stroke-dasharray: none; stroke-linecap: butt; stroke-dashoffset: 0; stroke-linejoin: miter; stroke-miterlimit: 4; fill: rgb(255,255,255); fill-rule: nonzero; opacity: 1;"  transform=" translate(-29.21, -29.51)" d="M 30.374 4.622 c -13.586 0 -20.437 9.74 -20.437 17.864 c 0 4.918 1.862 9.293 5.855 10.922 c 0.655 0.27 1.242 0.01 1.432 -0.715 c 0.132 -0.5 0.445 -1.766 0.584 -2.295 c 0.191 -0.717 0.117 -0.967 -0.412 -1.594 c -1.151 -1.357 -1.888 -3.115 -1.888 -5.607 c 0 -7.226 5.407 -13.695 14.079 -13.695 c 7.679 0 11.898 4.692 11.898 10.957 c 0 8.246 -3.649 15.205 -9.065 15.205 c -2.992 0 -5.23 -2.473 -4.514 -5.508 c 0.859 -3.623 2.524 -7.531 2.524 -10.148 c 0 -2.34 -1.257 -4.292 -3.856 -4.292 c -3.058 0 -5.515 3.164 -5.515 7.401 c 0 2.699 0.912 4.525 0.912 4.525 s -3.129 13.26 -3.678 15.582 c -1.092 4.625 -0.164 10.293 -0.085 10.865 c 0.046 0.34 0.482 0.422 0.68 0.166 c 0.281 -0.369 3.925 -4.865 5.162 -9.359 c 0.351 -1.271 2.011 -7.859 2.011 -7.859 c 0.994 1.896 3.898 3.562 6.986 3.562 c 9.191 0 15.428 -8.379 15.428 -19.595 C 48.476 12.521 41.292 4.622 30.374 4.622 z" stroke-linecap="round" />
</g>
</svg>