<svg width="14" height="25" viewBox="0 0 14 25" fill="none" xmlns="http://www.w3.org/2000/svg">
<path d="M11.7188 0H1.5625C1.14827 0.000542615 0.751153 0.165337 0.458245 0.458245C0.165337 0.751153 0.000542615 1.14827 0 1.5625V22.6562C0.000542615 23.0705 0.165337 23.4676 0.458245 23.7605C0.751153 24.0534 1.14827 24.2182 1.5625 24.2188H11.7188C12.133 24.2182 12.5301 24.0534 12.823 23.7605C13.1159 23.4676 13.2807 23.0705 13.2812 22.6562V1.5625C13.2807 1.14827 13.1159 0.751153 12.823 0.458245C12.5301 0.165337 12.133 0.000542615 11.7188 0V0ZM8.46875 0.78125L8.24902 1.5625H4.99268L4.79736 0.78125H8.46875ZM12.5 22.6562C12.4997 22.8634 12.4173 23.0619 12.2709 23.2084C12.1244 23.3548 11.9259 23.4372 11.7188 23.4375H1.5625C1.35538 23.4372 1.15683 23.3548 1.01037 23.2084C0.863918 23.0619 0.781521 22.8634 0.78125 22.6562V1.5625C0.781521 1.35538 0.863918 1.15683 1.01037 1.01037C1.15683 0.863918 1.35538 0.781521 1.5625 0.78125H3.9917L4.30859 2.04785C4.32972 2.13236 4.37848 2.20738 4.44713 2.261C4.51579 2.31461 4.60039 2.34374 4.6875 2.34375H8.54492C8.63005 2.34375 8.71285 2.31594 8.78071 2.26455C8.84858 2.21317 8.89781 2.14102 8.9209 2.05908L9.28027 0.78125H11.7188C11.9259 0.781521 12.1244 0.863918 12.2709 1.01037C12.4173 1.15683 12.4997 1.35538 12.5 1.5625V22.6562Z" fill="black"/>
<path d="M4.6875 21.875H1.95312C1.84952 21.875 1.75017 21.9162 1.67691 21.9894C1.60365 22.0627 1.5625 22.162 1.5625 22.2656C1.5625 22.3692 1.60365 22.4686 1.67691 22.5418C1.75017 22.6151 1.84952 22.6562 1.95312 22.6562H4.6875C4.7911 22.6562 4.89046 22.6151 4.96371 22.5418C5.03697 22.4686 5.07812 22.3692 5.07812 22.2656C5.07812 22.162 5.03697 22.0627 4.96371 21.9894C4.89046 21.9162 4.7911 21.875 4.6875 21.875Z" fill="black"/>
<path d="M6.25 21.875H5.85938C5.75577 21.875 5.65642 21.9162 5.58316 21.9894C5.5099 22.0627 5.46875 22.162 5.46875 22.2656C5.46875 22.3692 5.5099 22.4686 5.58316 22.5418C5.65642 22.6151 5.75577 22.6562 5.85938 22.6562H6.25C6.3536 22.6562 6.45296 22.6151 6.52621 22.5418C6.59947 22.4686 6.64062 22.3692 6.64062 22.2656C6.64062 22.162 6.59947 22.0627 6.52621 21.9894C6.45296 21.9162 6.3536 21.875 6.25 21.875Z" fill="black"/>
<path d="M8.59363 9.15633C8.56627 9.1136 8.53245 9.07803 8.4941 9.05164C8.45574 9.02526 8.41361 9.00857 8.37009 9.00254C8.28222 8.99036 8.19407 9.02232 8.12504 9.09138C8.05601 9.16045 8.01176 9.26096 8.00201 9.37081C7.99227 9.48066 8.01783 9.59085 8.07308 9.67714L9.23966 11.5L8.07308 13.3229C8.01783 13.4091 7.99227 13.5193 8.00201 13.6292C8.01176 13.739 8.05601 13.8396 8.12504 13.9086C8.19407 13.9777 8.28222 14.0096 8.37009 13.9975C8.45797 13.9853 8.53838 13.93 8.59363 13.8437L9.92686 11.7604C9.97419 11.6865 9.99998 11.5947 9.99998 11.5C9.99998 11.4053 9.97419 11.3135 9.92686 11.2396L8.59363 9.15633Z" fill="black"/>
<path d="M10.5937 9.15633C10.5663 9.1136 10.5325 9.07803 10.4941 9.05164C10.4558 9.02526 10.4136 9.00857 10.3701 9.00254C10.2822 8.99036 10.1941 9.02232 10.1251 9.09138C10.056 9.16045 10.0118 9.26096 10.002 9.37081C9.9923 9.48066 10.0179 9.59085 10.0731 9.67714L11.2397 11.5L10.0731 13.3229C10.0179 13.4091 9.9923 13.5193 10.002 13.6292C10.0118 13.739 10.056 13.8396 10.1251 13.9086C10.1941 13.9777 10.2822 14.0096 10.3701 13.9975C10.458 13.9853 10.5384 13.93 10.5937 13.8437L11.9269 11.7604C11.9742 11.6865 12 11.5947 12 11.5C12 11.4053 11.9742 11.3135 11.9269 11.2396L10.5937 9.15633Z" fill="black"/>
<circle cx="4.5" cy="13.5" r="0.5" fill="black"/>
<path d="M5 10H4V13H5V10Z" fill="black"/>
<circle cx="6.5" cy="9.5" r="0.5" fill="black"/>
<path d="M3 9.5C3 9.77614 2.77614 10 2.5 10C2.22386 10 2 9.77614 2 9.5C2 9.22386 2.22386 9 2.5 9C2.77614 9 3 9.22386 3 9.5Z" fill="black"/>
<path d="M2.5 9.5H6.5" stroke="black"/>
<path d="M4.5 9V13.5" stroke="black"/>
</svg>
